# xmcd CD database file
#
# Track frame offsets:
#	150
#	20915
#	34975
#
# Disc length: 741 seconds
#
# Revision: 0
# Processed by: cddbd v1.5PL3 Copyright (c) Steve Scherf et al.
# Submitted via: CDex 1.50beta9
#
DISCID=2302e303
DTITLE=小沢健二 - 大人になれば
DYEAR=1996
DGENRE=J-POP
TTITLE0=大人になれば
TTITLE1=球体の奏でる音楽
TTITLE2=大人になれば（ｉｎｓｔ）
EXTD=YEAR: 1996
EXTT0=
EXTT1=
EXTT2=
PLAYORDER=
